<?xml version="1.0" encoding="iso-8859-1"?>
<!DOCTYPE svg PUBLIC "-//W3C//DTD SVG 1.1//EN" "http://www.w3.org/Graphics/SVG/1.1/DTD/svg11.dtd">
<svg version="1.1" id="Capa_1" xmlns="http://www.w3.org/2000/svg" xmlns:xlink="http://www.w3.org/1999/xlink" x="0px" y="0px"
	 viewBox="0 0 470 470" style="enable-background:new 0 0 470 470;" xml:space="preserve">
<g>
	<path d="M322.724,316.299c-2.07-3.588-6.66-4.816-10.245-2.745l-18.759,10.83l1.24-13.006c0.394-4.123-2.63-7.785-6.754-8.178
		c-4.131-0.392-7.784,2.631-8.178,6.754l-2.255,23.637l-36.289,20.952v-41.902l19.344-13.771c3.375-2.402,4.162-7.085,1.76-10.46
		c-2.401-3.373-7.083-4.163-10.459-1.76l-10.645,7.578v-21.662c0-4.142-3.357-7.5-7.5-7.5s-7.5,3.358-7.5,7.5v21.661l-10.644-7.577
		c-3.375-2.402-8.057-1.614-10.46,1.76c-2.401,3.374-1.613,8.057,1.761,10.459l19.343,13.77v41.903l-36.288-20.951l-2.255-23.637
		c-0.394-4.124-4.063-7.153-8.178-6.754c-4.124,0.393-7.147,4.055-6.754,8.178l1.24,13.006l-18.759-10.83
		c-3.59-2.072-8.175-0.843-10.245,2.745c-2.071,3.587-0.842,8.174,2.745,10.245l18.759,10.831l-11.884,5.429
		c-3.768,1.721-5.427,6.171-3.706,9.938c1.26,2.758,3.981,4.385,6.827,4.385c1.042,0,2.102-0.219,3.111-0.68l21.598-9.866
		l36.289,20.951l-36.288,20.951l-21.598-9.866c-3.769-1.722-8.218-0.061-9.938,3.706c-1.721,3.768-0.062,8.217,3.706,9.938
		l11.884,5.429l-18.759,10.831c-3.587,2.071-4.816,6.658-2.745,10.245c1.39,2.406,3.91,3.751,6.502,3.751
		c1.272,0,2.563-0.324,3.743-1.006l18.759-10.83l-1.24,13.006c-0.394,4.123,2.63,7.785,6.754,8.178
		c0.242,0.023,0.482,0.034,0.721,0.034c3.821,0,7.087-2.907,7.457-6.788l2.255-23.637l36.288-20.951v41.902l-19.343,13.771
		c-3.375,2.402-4.162,7.085-1.76,10.46c2.401,3.374,7.082,4.163,10.459,1.76l10.644-7.578V462.5c0,4.142,3.357,7.5,7.5,7.5
		s7.5-3.358,7.5-7.5v-21.662l10.645,7.578c1.319,0.939,2.838,1.391,4.343,1.391c2.345,0,4.653-1.096,6.117-3.151
		c2.401-3.374,1.613-8.057-1.761-10.459l-19.344-13.771v-41.903l36.289,20.952l2.255,23.637c0.37,3.881,3.636,6.788,7.457,6.788
		c0.238,0,0.479-0.011,0.721-0.034c4.124-0.393,7.147-4.055,6.754-8.178l-1.24-13.006l18.759,10.83
		c1.182,0.682,2.471,1.006,3.743,1.006c2.592,0,5.113-1.345,6.502-3.751c2.071-3.587,0.842-8.174-2.745-10.245l-18.759-10.831
		l11.884-5.429c3.768-1.721,5.427-6.171,3.706-9.938c-1.721-3.767-6.169-5.426-9.938-3.706l-21.598,9.866l-36.289-20.951
		l36.288-20.951l21.598,9.866c1.01,0.461,2.069,0.68,3.111,0.68c2.846,0,5.567-1.628,6.827-4.385
		c1.721-3.768,0.062-8.217-3.706-9.938l-11.884-5.429l18.759-10.831C323.565,324.473,324.795,319.886,322.724,316.299z"/>
	<path d="M359.987,101.059c-5.243-27.08-19.413-51.792-40.34-70.131C296.889,10.984,267.672,0,237.378,0
		c-49.335,0-93.445,28.564-113.712,73.188c-46.142,2.858-82.891,41.433-82.891,88.208c0,48.738,39.651,88.389,88.389,88.389h225.607
		c41.054,0,74.453-33.4,74.453-74.454C429.225,136.032,398.616,103.746,359.987,101.059z M354.771,234.786H129.164
		c-40.467,0-73.389-32.922-73.389-73.389c0-40.219,32.721-73.135,72.94-73.377c3.03-0.018,5.752-1.858,6.897-4.663
		C152.582,41.832,192.526,15,237.378,15c54.463,0,101.24,40.605,108.809,94.452c0.526,3.75,3.797,6.513,7.555,6.455
		c0.204-0.004,0.407-0.01,0.611-0.017c0.139-0.005,0.278-0.011,0.419-0.011c32.782,0,59.453,26.671,59.453,59.454
		C414.225,208.115,387.554,234.786,354.771,234.786z"/>
</g>
<g>
</g>
<g>
</g>
<g>
</g>
<g>
</g>
<g>
</g>
<g>
</g>
<g>
</g>
<g>
</g>
<g>
</g>
<g>
</g>
<g>
</g>
<g>
</g>
<g>
</g>
<g>
</g>
<g>
</g>
</svg>
